<?xml version="1.0" encoding="UTF-8"?>
<!--
# Dosya Yolu: assets/icons/social/instagram.svg
# Amac: Instagram sosyal medya ikonunu yerel dosya olarak sunmak
# Modul - SVG
# Version: 1.0.0
# Aciklama: Header, footer ve iletisim alanlarinda CDN bagimliligi olmadan gorunen sosyal ikon
# Bagimli Oldugu Katman: View
-->
<svg xmlns="http://www.w3.org/2000/svg" viewBox="0 0 16 16" role="img" aria-label="Instagram">
  <path fill="#ffffff" d="M8 0C5.829 0 5.556.01 4.703.048 3.85.088 3.269.222 2.76.42a3.9 3.9 0 0 0-1.417.923A3.9 3.9 0 0 0 .42 2.76C.222 3.268.087 3.85.048 4.7.01 5.555 0 5.827 0 8s.01 2.445.048 3.298c.04.852.174 1.433.372 1.942.205.526.478.972.923 1.417.444.445.89.719 1.416.923.51.198 1.09.333 1.942.372C5.555 15.99 5.827 16 8 16s2.445-.01 3.298-.048c.852-.04 1.433-.174 1.942-.372a3.9 3.9 0 0 0 1.417-.923c.445-.445.719-.891.923-1.417.198-.509.333-1.09.372-1.942C15.99 10.445 16 10.173 16 8s-.01-2.445-.048-3.298c-.04-.852-.174-1.433-.372-1.942a3.9 3.9 0 0 0-.923-1.417A3.9 3.9 0 0 0 13.24.42c-.509-.198-1.09-.333-1.942-.372C10.445.01 10.173 0 8 0Zm0 1.442c2.136 0 2.389.008 3.232.047.78.036 1.204.166 1.486.276.374.145.641.318.922.599.281.281.454.548.599.922.11.282.24.706.276 1.486.039.843.047 1.096.047 3.232s-.008 2.389-.047 3.232c-.036.78-.166 1.204-.276 1.486a2.5 2.5 0 0 1-.599.922 2.5 2.5 0 0 1-.922.599c-.282.11-.706.24-1.486.276-.843.039-1.096.047-3.232.047s-2.389-.008-3.232-.047c-.78-.036-1.204-.166-1.486-.276a2.5 2.5 0 0 1-.922-.599 2.5 2.5 0 0 1-.599-.922c-.11-.282-.24-.706-.276-1.486-.039-.843-.047-1.096-.047-3.232s.008-2.389.047-3.232c.036-.78.166-1.204.276-1.486.145-.374.318-.641.599-.922.281-.281.548-.454.922-.599.282-.11.706-.24 1.486-.276.843-.039 1.096-.047 3.232-.047Zm0 2.452a4.106 4.106 0 1 0 0 8.212 4.106 4.106 0 0 0 0-8.212Zm0 6.77a2.664 2.664 0 1 1 0-5.328 2.664 2.664 0 0 1 0 5.328Zm5.23-6.932a.96.96 0 1 1-1.92 0 .96.96 0 0 1 1.92 0Z"/>
</svg>
