<!--
# Dosya Yolu: assets/images/blog/generic/preparation-defects.svg
# Amac: Oto boya hazirlik surecleri blog karti icin vektor gorsel saglamak
# Modul - SVG
# Version: 1.0.0
# Aciklama: Yuzey kusurlari ve hazirlik adimlarini temsil eden hafif vektor gorsel
# Bagimli Oldugu Katman: View
-->
<svg xmlns="http://www.w3.org/2000/svg" width="1200" height="760" viewBox="0 0 1200 760" role="img" aria-labelledby="title desc">
<title id="title">Oto boya hazirlik surecleri</title><desc id="desc">Zimpara, astar, temizlik ve yuzey kontrolunu temsil eden blog gorseli.</desc>
<defs><linearGradient id="bg" x1="0" x2="1" y1="0" y2="1"><stop offset="0" stop-color="#eaf2ff"/><stop offset="1" stop-color="#f8fbff"/></linearGradient><linearGradient id="panel" x1="0" x2="1"><stop offset="0" stop-color="#1d4ed8"/><stop offset="1" stop-color="#38bdf8"/></linearGradient><filter id="shadow" x="-20%" y="-20%" width="140%" height="140%"><feDropShadow dx="0" dy="18" stdDeviation="24" flood-color="#1e3a8a" flood-opacity="0.18"/></filter></defs>
<rect width="1200" height="760" rx="52" fill="url(#bg)"/><circle cx="1030" cy="120" r="140" fill="#dbeafe"/><circle cx="120" cy="650" r="160" fill="#eef6ff"/>
<g filter="url(#shadow)"><rect x="120" y="130" width="960" height="500" rx="42" fill="#fff"/><rect x="160" y="180" width="430" height="300" rx="34" fill="url(#panel)"/><path d="M198 392c72-84 128-112 182-78 30 19 48 55 83 50 34-5 53-44 94-61v112H198z" fill="#bfdbfe" opacity=".84"/><circle cx="274" cy="256" r="46" fill="#f97316"/><path d="M186 512h838" stroke="#cbd5e1" stroke-width="12" stroke-linecap="round"/><path d="M186 550h520" stroke="#e2e8f0" stroke-width="12" stroke-linecap="round"/></g>
<g fill="none" stroke-linecap="round" stroke-linejoin="round"><path d="M690 220h250" stroke="#1e293b" stroke-width="28"/><path d="M690 286h300" stroke="#64748b" stroke-width="20"/><path d="M690 342h220" stroke="#94a3b8" stroke-width="20"/><path d="M700 420c74-35 142 35 220 0" stroke="#f97316" stroke-width="26"/><path d="M700 470h250" stroke="#2563eb" stroke-width="26"/></g>
<g><rect x="820" y="566" width="190" height="64" rx="32" fill="#1d4ed8"/><text x="915" y="606" text-anchor="middle" font-family="Inter,Arial,sans-serif" font-size="26" font-weight="800" fill="#fff">Hazirlik</text></g>
</svg>